<?xml version="1.0" encoding="UTF-8"?>
<svg version="1.1" xmlns="http://www.w3.org/2000/svg" width="512" height="512">
<path d="M0 0 C3.94070736 3.14525135 7.08047771 6.53440187 8.68359375 11.34375 C9.44569209 18.26510209 8.7212166 24.52482296 4.68359375 30.34375 C-0.33900562 35.06194941 -5.7246574 37.62181568 -11.9765625 40.5 C-18.55297059 44.13048494 -21.24887631 48.24335569 -23.57080078 55.23486328 C-24.89208645 60.74411402 -24.86005908 66.14227105 -24.75390625 71.78125 C-24.7384375 73.60765015 -24.7384375 73.60765015 -24.72265625 75.47094727 C-24.55914718 84.62204514 -23.61890449 93.47049279 -21.97265625 102.46484375 C-21.45114704 105.5473357 -21.16823709 108.23837133 -21.31640625 111.34375 C-19.83140625 110.84875 -19.83140625 110.84875 -18.31640625 110.34375 C-1.07662423 109.46364101 -1.07662423 109.46364101 4.68359375 112.34375 C4.77576172 111.78792236 4.86792969 111.23209473 4.96289062 110.65942383 C6.37135183 102.89958506 8.68582675 95.50075714 11.18359375 88.03125 C11.40157623 87.3761142 11.61955872 86.72097839 11.84414673 86.04598999 C19.51737717 63.13978018 30.90857023 33.91160812 52.8671875 21.06640625 C60.73430012 17.23510877 67.90744965 16.35206299 76.25390625 19.19921875 C82.73110371 22.25037447 86.97501298 26.74158438 89.68359375 33.34375 C90.65487594 39.83402323 91.02234974 46.41936982 87.12109375 51.96875 C83.64721508 56.12987296 79.37123251 58.99932417 73.98217773 59.68994141 C69.81491792 59.8609793 65.65829893 59.84732471 61.48828125 59.83203125 C53.69282546 59.93948741 49.77648437 61.15697775 43.6015625 65.96484375 C30.76485706 79.43903795 25.27931561 100.06061078 19.68359375 117.34375 C20.44406006 117.47789307 21.20452637 117.61203613 21.98803711 117.75024414 C35.97547433 120.82998872 49.75984179 133.97346591 57.6484375 145.140625 C68.41237696 162.08195007 72.84497137 180.40184212 69.02734375 200.3828125 C65.52968149 213.74026406 58.9600778 225.20543044 49.68359375 235.34375 C48.96171875 236.14683594 48.23984375 236.94992187 47.49609375 237.77734375 C43.57677939 241.92761771 40.07489517 244.70925717 34.9609375 247.26171875 C31.57873703 249.38436062 29.97938898 250.43404301 28.73242188 254.26904297 C28.43975005 257.85743119 28.47051461 261.30918554 28.62109375 264.90625 C28.62959096 267.53254124 28.63346097 270.15885134 28.6328125 272.78515625 C28.64747559 274.07566895 28.66213867 275.36618164 28.67724609 276.69580078 C28.76039351 324.47998068 13.62811289 375.67123486 -19.2734375 411.08984375 C-20.69070002 412.6534393 -22.04994012 414.27083582 -23.359375 415.92578125 C-47.91874166 446.26958956 -94.00744193 460.41451818 -130.94140625 466.15625 C-131.6181842 466.26157043 -132.29496216 466.36689087 -132.99224854 466.47540283 C-147.10829613 468.64238324 -160.9547275 469.5049824 -175.21484375 469.51171875 C-176.8554385 469.51494884 -178.49603298 469.51831407 -180.1366272 469.52180481 C-183.5775824 469.52776759 -187.01851266 469.52964846 -190.45947266 469.52905273 C-193.90093379 469.52897268 -197.34225839 469.53572256 -200.78369141 469.54956055 C-232.68553528 469.67570878 -264.4794526 468.5668483 -296.25390625 465.59375 C-297.14656189 465.51171326 -298.03921753 465.42967651 -298.95892334 465.34515381 C-398.77355548 456.05595935 -398.77355548 456.05595935 -418.71875 433.77734375 C-422.62623291 428.59262265 -423.07389543 423.73462213 -422.79296875 417.33984375 C-422.05703877 412.71313643 -420.96666502 411.30958525 -417.31640625 408.34375 C-407.19889362 401.42375315 -393.45413694 400.79578049 -381.62890625 399.71875 C-380.3248584 399.59395264 -379.02081055 399.46915527 -377.67724609 399.34057617 C-367.90057566 398.42828872 -358.12767415 397.72928763 -348.31640625 397.34375 C-350.30996591 394.77940273 -352.06450306 392.54118764 -354.62890625 390.53125 C-378.50348365 371.09845444 -392.35019737 338.43712236 -399.31640625 309.34375 C-399.63609375 308.10882813 -399.95578125 306.87390625 -400.28515625 305.6015625 C-404.92385372 284.5985712 -404.22647689 259.95322711 -398.31640625 239.34375 C-398.11805176 238.60769531 -397.91969727 237.87164062 -397.71533203 237.11328125 C-392.84084603 219.33711274 -384.1403431 202.48063234 -372.31640625 188.34375 C-371.40816298 187.22321613 -370.500644 186.10209492 -369.59375 184.98046875 C-364.60455355 178.87691213 -359.50817981 173.25446696 -353.31640625 168.34375 C-352.300625 167.50328125 -351.28484375 166.6628125 -350.23828125 165.796875 C-315.68267492 137.53309966 -272.92657598 127.04413828 -228.81884766 130.62792969 C-208.37403234 132.95396785 -189.28669735 139.44750566 -171.31640625 149.34375 C-170.26195312 149.90835938 -169.2075 150.47296875 -168.12109375 151.0546875 C-134.13733239 169.9542728 -109.44117383 202.49046087 -98.65966797 239.60449219 C-96.00229806 249.39525983 -94.43096983 259.26868184 -93.31640625 269.34375 C-88.72114126 246.05849965 -86.36605313 222.67335668 -85.81640625 198.96875 C-85.15898061 172.38081348 -79.38143204 148.05413632 -60.31640625 128.34375 C-54.00099 122.77033192 -44.27367684 114.34375 -35.31640625 114.34375 C-35.55875 113.51359375 -35.80109375 112.6834375 -36.05078125 111.828125 C-44.29567389 81.51228899 -50.87961708 39.40351222 -35.31640625 10.34375 C-27.75454461 -1.95120841 -13.59490638 -8.18618019 0 0 Z M-50.24609375 150.58984375 C-60.59074781 164.35018547 -63.23043603 181.29725153 -63.60620117 198.08569336 C-64.89757667 255.04312318 -73.32460834 318.76607187 -115.71142578 360.81201172 C-135.77704879 379.96195372 -163.27930514 391.16375811 -191.06640625 391.44921875 C-192.08734375 391.46404297 -193.10828125 391.47886719 -194.16015625 391.49414062 C-196.26418394 391.51887857 -198.36853188 391.52408825 -200.47265625 391.50976562 C-206.95666717 391.64484919 -210.61716062 392.54052331 -215.54150391 396.80883789 C-243.13311226 420.66969645 -297.42697047 416.7808563 -331.73834229 418.75097656 C-338.9167146 419.16332735 -346.09466644 419.58239445 -353.27215195 420.00990105 C-355.72973344 420.15459334 -358.18759069 420.29346888 -360.64553833 420.43177795 C-371.25061838 421.0475677 -381.77010225 422.0736919 -392.31640625 423.34375 C-389.36586163 425.63982889 -387.012241 426.95529936 -383.40625 427.9921875 C-381.94445312 428.41298584 -381.94445312 428.41298584 -380.453125 428.84228516 C-379.39738281 429.13151855 -378.34164062 429.42075195 -377.25390625 429.71875 C-376.13757813 430.02474121 -375.02125 430.33073242 -373.87109375 430.64599609 C-340.85355863 439.449135 -306.3913027 442.79589191 -272.37890625 445.09375 C-271.50775177 445.15282532 -270.63659729 445.21190063 -269.73904419 445.27276611 C-246.00603167 446.84973477 -222.28565689 447.53053388 -198.50146484 447.52905273 C-194.55555685 447.53125606 -190.60992214 447.54956027 -186.6640625 447.56835938 C-167.84286877 447.61059972 -149.17958673 446.95771802 -130.62890625 443.53125 C-129.68378174 443.36020752 -128.73865723 443.18916504 -127.76489258 443.01293945 C-87.36084388 435.45561592 -48.97797286 417.43301737 -24.56445312 383.18261719 C-20.7028201 377.49290281 -17.48140483 371.4395826 -14.31640625 365.34375 C-14.00074707 364.74900879 -13.68508789 364.15426758 -13.35986328 363.54150391 C4.25796819 330.00836498 6.81359147 290.21878087 7.30541992 253.03027344 C7.33986206 251.06429199 7.33986206 251.06429199 7.375 249.05859375 C7.38732666 247.90480225 7.39965332 246.75101074 7.41235352 245.56225586 C7.69796836 242.17318251 8.3582819 239.47279862 9.68359375 236.34375 C11.9765625 235.16796875 11.9765625 235.16796875 14.68359375 234.34375 C29.653729 225.86291105 41.68213627 214.25343956 46.68359375 197.34375 C49.89534527 184.05977093 47.38160589 171.04241081 40.37109375 159.46875 C31.0342614 145.88611599 16.86855393 137.62041645 0.9387207 133.75830078 C-18.97645307 130.09737569 -37.00073538 135.10615826 -50.24609375 150.58984375 Z M-351.31640625 197.34375 C-373.53603935 223.69484613 -382.17710839 254.03990624 -380.31640625 288.34375 C-377.18164685 319.89523082 -363.3557825 347.98100704 -342.31640625 371.34375 C-341.42695313 372.34148437 -341.42695313 372.34148437 -340.51953125 373.359375 C-335.11046213 379.08977496 -328.70194676 383.76642175 -322.31640625 388.34375 C-321.30964844 389.06820312 -320.30289063 389.79265625 -319.265625 390.5390625 C-318.29238281 391.17585937 -317.31914062 391.81265625 -316.31640625 392.46875 C-315.04796875 393.30792969 -315.04796875 393.30792969 -313.75390625 394.1640625 C-303.5331633 397.67163565 -290.90233941 394.89765915 -280.31640625 393.65625 C-279.16587265 393.52278671 -279.16587265 393.52278671 -277.99209595 393.3866272 C-254.48783294 390.6215097 -234.35142149 386.75265731 -216.31640625 370.34375 C-215.69507813 369.80363281 -215.07375 369.26351562 -214.43359375 368.70703125 C-197.74570547 353.29984137 -188.40803565 330.76132597 -187.31640625 308.34375 C-186.93104748 289.6213755 -191.19443864 270.3660921 -203.69140625 255.90625 C-216.22097277 242.99635937 -232.18615936 234.67440849 -250.40917969 233.87109375 C-260.93761309 233.72943294 -271.40928649 235.7409664 -279.66796875 242.640625 C-285.54914975 248.71691627 -288.35641582 255.63487691 -288.69140625 264.03125 C-288.53069935 273.27189675 -285.32843065 282.36769707 -278.68359375 288.96484375 C-273.55413567 293.59467929 -269.2141397 295.35562022 -262.31640625 296.15625 C-255.81713299 297.15552326 -255.81713299 297.15552326 -253.12890625 299.84375 C-250.39229533 303.61838575 -249.94930902 305.66326031 -250.31640625 310.34375 C-251.64568197 313.42207272 -252.6221939 314.92722259 -255.50390625 316.65625 C-265.22539254 319.03261331 -276.15799779 316.48739119 -284.69140625 311.53125 C-286.25238079 310.49732502 -287.79592102 309.43634646 -289.31640625 308.34375 C-289.95191406 307.90289062 -290.58742188 307.46203125 -291.2421875 307.0078125 C-300.33830371 300.02941736 -306.83914016 287.37233122 -308.99609375 276.17578125 C-310.88969548 259.43357087 -308.7305431 245.08952809 -298.31640625 231.34375 C-289.6765154 220.76803455 -276.70482147 215.03324049 -263.31640625 213.34375 C-242.63872927 212.05083305 -225.27862111 214.91458736 -207.31640625 225.34375 C-206.44371094 225.85035156 -205.57101563 226.35695313 -204.671875 226.87890625 C-186.30102752 238.42905379 -174.35727317 257.11791008 -169.05859375 277.9375 C-161.81649677 311.1749135 -168.80450328 340.67776871 -186.31640625 369.34375 C-171.43138639 368.99685335 -151.64088763 363.42087569 -141.00390625 352.40625 C-121.02456627 327.25025019 -113.27851754 293.89427818 -116.6328125 262.37011719 C-117.48608866 256.59807677 -118.7825829 250.96988514 -120.31640625 245.34375 C-120.49300781 244.6748877 -120.66960937 244.00602539 -120.8515625 243.31689453 C-126.19914727 223.6645205 -137.45854331 207.01397042 -151.31640625 192.34375 C-152.0021875 191.59351563 -152.68796875 190.84328125 -153.39453125 190.0703125 C-175.41605726 166.82536838 -209.25689955 153.14448124 -241.01171875 152.10546875 C-282.75333275 151.38376795 -322.88287652 165.80030295 -351.31640625 197.34375 Z " fill="#7CFCA0" transform="translate(422.31640625,22.65625)"/>
</svg>
